<?xml version="1.0" encoding="utf-8"?>
<!-- Generator: Adobe Illustrator 27.0.0, SVG Export Plug-In . SVG Version: 6.00 Build 0)  -->
<svg version="1.1" id="图层_1" xmlns="http://www.w3.org/2000/svg" xmlns:xlink="http://www.w3.org/1999/xlink" x="0px" y="0px"
	 viewBox="0 0 360 80" style="enable-background:new 0 0 360 80;" xml:space="preserve">
<style type="text/css">
	.st0{fill:#4D6BFF;}
	.st1{fill:#FFFFFF;}
	.st2{fill:#FF0000;}
	.st3{fill:#FFD677;}
	.st4{fill:#FFBA53;}
	.st5{fill:#FFF9EB;}
	.st6{fill:#FFE899;}
	.st7{fill:#FFB955;}
	.st8{fill:#FF9956;}@keyframes bounce {
  from,
  20%,
  53%,
  to {
    animation-timing-function: cubic-bezier(0.215, 0.61, 0.355, 1);
    transform: translate3d(0, 0, 0);
  }

  40%,
  43% {
    animation-timing-function: cubic-bezier(0.755, 0.05, 0.855, 0.06);
    transform: translate3d(0, -30px, 0) scaleY(1.8);
  }

  70% {
    animation-timing-function: cubic-bezier(0.755, 0.05, 0.855, 0.06);
    transform: translate3d(0, -15px, 0) scaleY(1.55);
  }

  80% {
    transition-timing-function: cubic-bezier(0.215, 0.61, 0.355, 1);
    transform: translate3d(0, 0, 0) scaleY(0.95);
  }

  90% {
    transform: translate3d(0, -4px, 0) scaleY(1.02);
  }
}
.g2 {
  animation-duration: 1s;
  animation-fill-mode: both;
  animation-name: bounce;
  transform-origin: center bottom;
}
</style>
<g>
	<g>
		<g>
			<path class="st2" d="M158.48,56.06l-2.13,15.53h-7.06l1.77-11.99h-4.23l-1.77,11.99h-7.06l2.13-14.5l-1.07-1.03H158.48z"/>
			<path class="st2" d="M177.32,59.59h-3.75l-0.33,1.4h-7.06l1.07-4.93h17.29l-2.13,13.76l1.44,1.77h-16.59
				c-0.71,0-1.25-0.23-1.6-0.7s-0.53-1.05-0.53-1.77l1.07-6.73h10.59L177.32,59.59z M172.54,65.92l-0.37,2.13h3.53l0.37-2.13H172.54
				z"/>
			<path class="st2" d="M203.99,56.06h6.73l-8.5,15.53h-7.06l-3.86-14.13l-1.07-1.4h7.43l2.1,8.83L203.99,56.06z"/>
			<path class="st2" d="M230.77,62.5h-12.58l0.48-3.5h12.58l0.7-4.89h-13.98l0.48-3.46h20.97l-2.61,18.43
				c-0.1,0.71-0.42,1.31-0.97,1.78s-1.17,0.72-1.86,0.72h-18.47l0.51-3.5h13.94L230.77,62.5z"/>
			<path class="st1" d="M279.15,59.59h-11.29l-1.4,8.46h9.86l1.77-1.4l-0.7,4.93h-18.36l2.46-15.53h18.03L279.15,59.59z"/>
			<path class="st1" d="M306.63,56.06l-2.13,15.53h-7.06l1.77-11.99h-4.23l-1.77,11.99h-7.06l2.13-14.5l-1.07-1.03H306.63z"/>
		</g>
		<g>
			<g>
				<path class="st0" d="M30.8,39.94c0,20.6,16.71,37.31,37.35,37.32c20.63,0,37.36-16.7,37.36-37.3l0,0
					c0-20.62-16.72-37.33-37.35-37.33S30.8,19.34,30.8,39.94z"/>
			</g>
			<g>
				<path class="st1" d="M60.19,47.68c0.1,0.05,0.18,0.13,0.23,0.23l6.86,14.63c0.27,0.57,1.07,0.59,1.31,0.03l16.81-38.78
					c0.3-0.68-0.4-1.37-1.08-1.08L45.53,39.51c-0.56,0.24-0.54,1.04,0.03,1.31L60.19,47.68L60.19,47.68z"/>
			</g>
		</g>
		<g>
			<g>
				<path class="st1" d="M136.4,18.07l-1.04,2.65h26.53v4.72h-0.16l0.16,0.05c-2.04,4.91-5,8.81-8.88,11.68
					c1.45,0.55,3.01,0.97,4.67,1.25c1.66,0.28,3.46,0.47,5.4,0.57v4.98c-3.15,0-6.05-0.25-8.7-0.75c-2.65-0.5-5.11-1.36-7.4-2.57
					c-2.08,0.9-4.33,1.64-6.75,2.23c-2.42,0.59-5,1.02-7.74,1.3v-5.45c1.66-0.24,3.23-0.53,4.7-0.86c1.47-0.33,2.86-0.72,4.18-1.17
					c-2.63-2.42-5.12-5.55-7.48-9.4h7.11c1.83,2.73,3.86,4.95,6.07,6.65c1.59-1,3.01-2.2,4.26-3.58c1.25-1.38,2.35-3.01,3.32-4.88
					l0.05-0.05l-21.23,0.05l-7.16,18.33l-7.01,0.31l10.23-26.06h-3.37h-6.44l3.79-11.42h6.44l-2.08,6.28h3.63l2.49-6.28l7.01-0.26
					l-2.6,6.54h16.41l-1.82-5.04h6.85l3.58,10.18h-3.22h-3.63H136.4z"/>
			</g>
			<g>
				<path class="st1" d="M187.84,42.57l-16.41,1.45v-5.14l4.1-0.36V27.83h-4.1v-5.14h4.1V11.67h-4.1V6.55h4.1h7.16h5.14v5.12h-5.09
					v11.02h5.09v5.14h-5.09V37.9l5.09-0.47V42.57z M209.91,37.64c0,0.45,0.16,0.83,0.47,1.14c0.31,0.31,0.69,0.47,1.14,0.47h5.66
					l-3.37,4.78h-3.89h-1.51c-0.8,0-1.54-0.15-2.23-0.44c-0.69-0.29-1.3-0.7-1.82-1.22c-0.52-0.52-0.93-1.12-1.22-1.82
					c-0.29-0.69-0.44-1.44-0.44-2.23v-2.44l-5.71,8.15h-7.53l9.34-13.39V14.96h7.53v15.68l-1.19,1.71h4.78V37.64z M209.85,31.31
					V12.72c0-0.45-0.16-0.83-0.47-1.14c-0.31-0.31-0.71-0.47-1.19-0.47h-11.27v20.2h-7.22V6.55h21.69c0.76,0,1.49,0.15,2.18,0.44
					c0.69,0.29,1.3,0.7,1.82,1.22c0.52,0.52,0.94,1.13,1.25,1.82c0.31,0.69,0.47,1.44,0.47,2.23v19.05H209.85z"/>
			</g>
			<g>
				<path class="st1" d="M263.33,29.34h6.75v4.93h-6.75v4.05c0,0.8-0.15,1.53-0.44,2.21c-0.29,0.68-0.7,1.27-1.22,1.79
					c-0.52,0.52-1.13,0.93-1.82,1.22c-0.69,0.29-1.44,0.44-2.23,0.44h-11.16l1.92-4.93h6.13c0.45,0,0.83-0.16,1.14-0.47
					c0.31-0.31,0.47-0.69,0.47-1.14v-3.17h-31.67v-4.93h31.67v-2.65h-24.19c-0.8,0-1.54-0.15-2.23-0.44
					c-0.69-0.29-1.3-0.7-1.82-1.22c-0.52-0.52-0.93-1.12-1.22-1.82c-0.29-0.69-0.44-1.44-0.44-2.23v-1.92v-4.72v-3.06V7.12V6.55
					h42.05v1.76v5.04c0,0.8-0.15,1.54-0.44,2.23c-0.29,0.69-0.7,1.3-1.22,1.82c-0.52,0.52-1.12,0.93-1.82,1.22
					c-0.69,0.29-1.44,0.44-2.23,0.44h-29.12v1.3c0,0.45,0.16,0.83,0.47,1.14c0.31,0.31,0.71,0.47,1.19,0.47h33.17l-2.28,4.72h-2.65
					V29.34z M238.15,35.67l4.21,6.59h-7.53l-4.2-6.59H238.15z M233.42,14.33h26.01c0.45,0,0.83-0.16,1.14-0.47
					c0.31-0.31,0.47-0.69,0.47-1.14v-1.45h-27.62V14.33z"/>
			</g>
			<g>
				<path class="st1" d="M300.65,23.88h1.19v4.36h-1.19v10.75c0,0.38-0.04,0.73-0.13,1.04c-0.09,0.31-0.18,0.62-0.29,0.93
					c-0.31,0.59-0.68,1.09-1.09,1.51c-0.42,0.45-0.93,0.81-1.56,1.09c-0.28,0.1-0.58,0.19-0.91,0.26c-0.33,0.07-0.65,0.1-0.96,0.1
					h-4.57l2.08-3.84h0.16c0.38,0,0.76-0.16,1.14-0.47c0.28-0.28,0.41-0.67,0.41-1.19V28.25h-8.2v15.68h-5.71V28.25h-1.82v-4.36
					h1.82v-13.5l1.77,0.05l1.09-3.58h6.7l-1.04,3.53l7.37,0.05c1,0,1.88,0.37,2.62,1.11s1.12,1.61,1.12,2.61V23.88z M286.74,23.88
					h8.15V16.1c0-0.55-0.17-1-0.52-1.35c-0.35-0.35-0.78-0.52-1.3-0.52h-6.33V23.88z M294.16,22.43h-4.98l-1.76-6.59h4.98
					L294.16,22.43z M294.22,37.17h-4.98l-1.76-6.59h4.98L294.22,37.17z M300.86,44.03l2.7-10.64V18.28h19.16v20.14
					c0,0.35,0.12,0.64,0.36,0.88c0.21,0.21,0.52,0.31,0.93,0.31h1.35l-2.18,4.31H321c-0.69,0-1.32-0.1-1.87-0.31
					c-0.31-0.1-0.59-0.24-0.83-0.42c-0.24-0.17-0.47-0.36-0.68-0.57c-0.41-0.38-0.74-0.87-0.99-1.45c-0.24-0.52-0.36-1.09-0.36-1.71
					V23.42h-6.07v10.02l-2.7,10.59H300.86z M325.26,15.42h-23v-5.19l7.79,0.05V6.49h7.37v3.74l7.84,0.05V15.42z"/>
			</g>
		</g>
	</g>
	<g class="g2">
		<path class="st3" d="M249.4,66.44c0.07-0.12,0.24-0.16,0.36-0.09c0.04,0.02,0.06,0.05,0.09,0.09l0.88,1.44
			c0,0.01,0.01,0.01,0.01,0.01l1.64,0.39c0.14,0.03,0.23,0.17,0.19,0.31c-0.01,0.04-0.03,0.08-0.06,0.11l-1.09,1.28
			c0,0-0.01,0.01-0.01,0.02l0.13,1.68c0.01,0.14-0.1,0.27-0.24,0.28c-0.04,0-0.08,0-0.12-0.02l-1.55-0.65c-0.01,0-0.01,0-0.02,0
			l-1.55,0.65c-0.13,0.06-0.28-0.01-0.34-0.14c-0.02-0.04-0.02-0.08-0.02-0.12l0.13-1.68c0-0.01,0-0.01-0.01-0.02l-1.09-1.28
			c-0.09-0.11-0.08-0.27,0.03-0.37c0.03-0.03,0.07-0.05,0.11-0.06l1.64-0.39c0.01,0,0.01-0.01,0.01-0.01L249.4,66.44z"/>
		<path class="st4" d="M247.8,71.9L247.8,71.9c-0.08-0.05-0.12-0.14-0.11-0.23l0.13-1.68c0-0.01,0-0.01-0.01-0.02l-1.09-1.28
			c-0.06-0.07-0.08-0.16-0.05-0.25l0,0l2.94,0.96L247.8,71.9z"/>
		<path class="st5" d="M246.68,68.44c0.03-0.08,0.1-0.15,0.18-0.17l1.64-0.39c0.01,0,0.01-0.01,0.01-0.01l0.88-1.44
			c0.05-0.08,0.13-0.12,0.22-0.12v3.08L246.68,68.44z"/>
		<path class="st6" d="M246.69,68.44c0.03-0.08,0.1-0.14,0.18-0.16l1.64-0.39c0.01,0,0.01-0.01,0.01-0.01l0.88-1.44
			c0.05-0.08,0.14-0.13,0.24-0.12l-0.35,2.16c-0.04,0.23-0.25,0.38-0.48,0.35c0,0-0.01,0-0.01,0L246.69,68.44z"/>
		<path class="st7" d="M251.43,71.9l-1.81-2.5l2.94-0.96l0,0c0.03,0.09,0.01,0.18-0.05,0.25l-1.09,1.28c0,0-0.01,0.01-0.01,0.02
			l0.13,1.68C251.55,71.76,251.5,71.85,251.43,71.9z"/>
		<path class="st3" d="M252.55,68.44l-2.94,0.97v-3.09l0,0c0.09,0,0.17,0.05,0.22,0.12l0.88,1.44c0,0.01,0.01,0.01,0.01,0.01
			l1.64,0.39C252.45,68.3,252.52,68.36,252.55,68.44z"/>
		<path class="st8" d="M247.81,71.9l1.82-2.5l1.81,2.5c-0.07,0.05-0.17,0.06-0.25,0.03l-1.55-0.65c-0.01,0-0.01,0-0.02,0l-1.55,0.65
			C247.97,71.97,247.88,71.96,247.81,71.9z"/>
	</g>
</g>
</svg>
